<?xml version="1.0" encoding="iso-8859-1"?>
<!-- Uploaded to: SVG Repo, www.svgrepo.com, Generator: SVG Repo Mixer Tools -->
<svg height="800px" width="800px" version="1.1" id="Layer_1" xmlns="http://www.w3.org/2000/svg" xmlns:xlink="http://www.w3.org/1999/xlink" 
	 viewBox="0 0 508.609 508.609" xml:space="preserve">
<path style="fill:#8A6753;" d="M463.513,508.609H45.097v-74.935c0-34.925,26.109-64.085,60.355-68.493l92.228-36.62h113.25
	l92.228,36.62c34.585,4.069,60.355,33.568,60.355,68.493V508.609z"/>
<path style="fill:#7D5E4A;" d="M178.013,348.567v33.568c0,42.723,34.924,78.665,77.648,77.987
	c41.367-0.678,74.596-34.585,74.596-76.291v-35.264c0-12.207-9.833-22.04-22.04-22.04H199.714
	C187.846,326.866,178.013,336.699,178.013,348.567z"/>
<path style="fill:#EEB490;" d="M202.087,300.419v55.608c0,28.821,23.396,52.217,52.217,52.217l0,0
	c28.821,0,52.217-23.396,52.217-52.217v-55.608H202.087z"/>
<g>
	<path style="fill:#56545F;" d="M254.305,0L254.305,0C182.76,0,125.118,57.981,125.118,129.187v34.585
		c0,44.079,35.603,79.682,79.682,79.682h50.522l59.677-185.473c7.46-23.396-6.103-48.487-30.177-54.252
		C274.988,1.356,264.816,0,254.305,0z"/>
	<path style="fill:#56545F;" d="M312.625,65.78l-57.303,177.674h48.487c44.079,0,79.682-35.603,79.682-79.682v-34.585
		c0-26.109-7.799-50.522-21.023-70.866C349.584,38.993,319.746,43.401,312.625,65.78z"/>
</g>
<path style="fill:#FACCB4;" d="M306.861,94.601H201.748c-24.752,0-44.758,20.005-44.758,44.758v100.705
	c0,53.913,43.74,97.314,97.314,97.314l0,0c53.913,0,97.314-43.74,97.314-97.314V139.359
	C351.619,114.607,331.613,94.601,306.861,94.601z"/>
<g>
	<path style="fill:#F1F3F7;" d="M231.926,204.122h-44.079c-6.442,0-11.868-5.425-11.868-11.868V168.18
		c0-6.442,5.425-11.868,11.868-11.868h44.079c6.442,0,11.868,5.425,11.868,11.868v24.074
		C243.454,198.697,238.368,204.122,231.926,204.122z"/>
	<path style="fill:#F1F3F7;" d="M320.763,204.122h-44.079c-6.442,0-11.868-5.425-11.868-11.868V168.18
		c0-6.442,5.425-11.868,11.868-11.868h44.079c6.442,0,11.868,5.425,11.868,11.868v24.074
		C332.63,198.697,327.205,204.122,320.763,204.122z"/>
</g>
</svg>